<?xml version="1.0" encoding="UTF-8" standalone="no"?>
<svg width="45px" height="8px" viewBox="0 0 45 8" version="1.1" xmlns="http://www.w3.org/2000/svg" xmlns:xlink="http://www.w3.org/1999/xlink">
    <!-- Generator: Sketch 3.8.3 (29802) - http://www.bohemiancoding.com/sketch -->
    <title>Combined Shape</title>
    <desc>Created with Sketch.</desc>
    <defs>
        <linearGradient x1="0%" y1="50%" x2="83.9392334%" y2="50%" id="linearGradient-1">
            <stop stop-color="#FFC108" offset="0%"></stop>
            <stop stop-color="#FFC108" offset="91.9570662%"></stop>
            <stop stop-color="#BDBDBD" offset="92.2114158%"></stop>
            <stop stop-color="#E0E0E0" offset="100%"></stop>
        </linearGradient>
    </defs>
    <g id="Page-1" stroke="none" stroke-width="1" fill="none" fill-rule="evenodd">
        <g id="Group-30" transform="translate(-5.000000, -56.000000)" fill="url(#linearGradient-1)">
            <path d="M9.2364942,62.6334369 L6.61819679,64 L7.1182471,61.1055728 L5,59.0557281 L7.92734549,58.6334369 L9.2364942,56 L10.5456429,58.6334369 L13.4729884,59.0557281 L11.3547413,61.1055728 L11.8547916,64 L9.2364942,62.6334369 Z M19.0364241,62.6334369 L16.4181267,64 L16.918177,61.1055728 L14.7999299,59.0557281 L17.7272754,58.6334369 L19.0364241,56 L20.3455728,58.6334369 L23.2729183,59.0557281 L21.1546712,61.1055728 L21.6547215,64 L19.0364241,62.6334369 Z M27.9454514,62.6334369 L25.327154,64 L25.8272043,61.1055728 L23.7089572,59.0557281 L26.6363027,58.6334369 L27.9454514,56 L29.2546001,58.6334369 L32.1819456,59.0557281 L30.0636985,61.1055728 L30.5637488,64 L27.9454514,62.6334369 Z M36.8544786,62.6334369 L34.2361812,64 L34.7362315,61.1055728 L32.6179844,59.0557281 L35.5453299,58.6334369 L36.8544786,56 L38.1636273,58.6334369 L41.0909728,59.0557281 L38.9727257,61.1055728 L39.472776,64 L36.8544786,62.6334369 Z M45.7635058,62.6334369 L43.1452084,64 L43.6452587,61.1055728 L41.5270116,59.0557281 L44.4543571,58.6334369 L45.7635058,56 L47.0726545,58.6334369 L50,59.0557281 L47.8817529,61.1055728 L48.3818032,64 L45.7635058,62.6334369 Z" id="Combined-Shape"></path>
        </g>
    </g>
</svg>