<svg width="10px" height="13px" viewBox="0 0 10 13" version="1.1" xmlns="http://www.w3.org/2000/svg" xmlns:xlink="http://www.w3.org/1999/xlink">
    <!-- Generator: Sketch 3.8.3 (29802) - http://www.bohemiancoding.com/sketch -->
    <desc>Created with Sketch.</desc>
    <defs></defs>
    <path d="M5,0 C2.24332061,0 0,2.13899861 0,4.76809232 C0,8.16794832 4.27835333,12.5893341 4.46074155,12.7756222 C4.59991821,12.9186208 4.79511996,13 5,13 C5.20433479,13 5.39953653,12.9187508 5.53912214,12.7756222 C5.72151036,12.5894641 10,8.16794832 10,4.76809232 C9.99986369,2.13886861 7.75667939,0 5,0 L5,0 Z M3.02644493,4.61794382 C3.02644493,3.57821422 3.91003272,2.73530265 5,2.73530265 C6.08996728,2.73530265 6.97355507,3.57795422 6.97355507,4.61794382 C6.97355507,5.65741343 6.0901036,6.500065 5,6.500065 C3.91016903,6.499935 3.02644493,5.65728343 3.02644493,4.61794382 L3.02644493,4.61794382 Z" id="Shape" stroke="none" fill="#FFFFFF" fill-rule="evenodd"></path>
</svg>