<svg width="24px" height="24px" viewBox="9 12 24 24" version="1.1" xmlns="http://www.w3.org/2000/svg" xmlns:xlink="http://www.w3.org/1999/xlink">
    <!-- Generator: Sketch 3.8.3 (29802) - http://www.bohemiancoding.com/sketch -->
    <desc>Created with Sketch.</desc>
    <defs></defs>
    <g id="magnify" opacity="0.5" stroke="none" stroke-width="1" fill="none" fill-rule="evenodd" transform="translate(9.000000, 12.000000)">
        <rect id="Rectangle-8" x="0" y="0" width="24" height="24"></rect>
        <path d="M9.5,3 C13.0898509,3 16,5.91014913 16,9.5 C16,11.11 15.41,12.59 14.44,13.73 L14.71,14 L15.5,14 L20.5,19 L19,20.5 L14,15.5 L14,14.71 L13.73,14.44 C12.59,15.41 11.11,16 9.5,16 C5.91014913,16 3,13.0898509 3,9.5 C3,5.91014913 5.91014913,3 9.5,3 L9.5,3 Z M9.5,5 C7,5 5,7 5,9.5 C5,12 7,14 9.5,14 C12,14 14,12 14,9.5 C14,7 12,5 9.5,5 L9.5,5 Z" id="Shape" fill="#404040"></path>
    </g>
</svg>